<?xml version="1.0" encoding="iso-8859-1"?>
<!-- Generator: Adobe Illustrator 19.0.0, SVG Export Plug-In . SVG Version: 6.00 Build 0)  -->
<svg version="1.1" id="Layer_1" xmlns="http://www.w3.org/2000/svg" xmlns:xlink="http://www.w3.org/1999/xlink" x="0px" y="0px"
	 viewBox="0 0 501.333 501.333" style="enable-background:new 0 0 501.333 501.333;" xml:space="preserve">
<g>
	<g>
		<path d="M481.066,149.333c-10.667,0-20.267,8.533-20.267,20.267v121.6H40.533V54.4c0-10.667-9.6-20.267-20.267-20.267
			C9.6,34.133,0,42.667,0,54.4v392.533C0,457.6,8.533,467.2,20.267,467.2s21.333-8.533,20.267-20.267v-115.2H460.8v115.2
			c0,10.667,8.533,20.267,20.267,20.267c10.667,0,20.267-8.533,20.267-21.333V169.6C501.333,158.933,492.8,149.333,481.066,149.333z
			"/>
	</g>
</g>
<g>
	<g>
		<path d="M121.6,146.134c-32,0-58.667,26.667-58.667,58.667S89.6,263.467,121.6,263.467s58.667-26.667,58.667-58.667
			S153.6,146.134,121.6,146.134z M121.6,220.8c-9.6,0-17.067-7.467-17.067-17.067S112,186.667,121.6,186.667
			c9.6,0,17.067,7.467,17.067,17.067S131.2,220.8,121.6,220.8z"/>
	</g>
</g>
<g>
	<g>
		<path d="M419.2,221.867H219.733c-11.733,0-21.333,9.6-21.333,21.333s10.667,20.267,21.334,20.267H416
			c7.467,0,16-3.2,20.267-10.667C444.799,238.934,435.2,221.867,419.2,221.867z"/>
	</g>
</g>
<g>
</g>
<g>
</g>
<g>
</g>
<g>
</g>
<g>
</g>
<g>
</g>
<g>
</g>
<g>
</g>
<g>
</g>
<g>
</g>
<g>
</g>
<g>
</g>
<g>
</g>
<g>
</g>
<g>
</g>
</svg>
